<?xml version="1.0" encoding="UTF-8" standalone="no"?>
<!-- Created with Inkscape (http://www.inkscape.org/) -->

<svg
   xmlns:lc="http://www.librecad.org"
   xmlns:dc="http://purl.org/dc/elements/1.1/"
   xmlns:cc="http://creativecommons.org/ns#"
   xmlns:rdf="http://www.w3.org/1999/02/22-rdf-syntax-ns#"
   xmlns:svg="http://www.w3.org/2000/svg"
   xmlns="http://www.w3.org/2000/svg"
   xmlns:sodipodi="http://sodipodi.sourceforge.net/DTD/sodipodi-0.dtd"
   xmlns:inkscape="http://www.inkscape.org/namespaces/inkscape"
   width="349.20001mm"
   height="31mm"
   viewBox="0 0 1237.3229 109.84252"
   id="svg2"
   version="1.1"
   inkscape:version="0.91 r13725"
   sodipodi:docname="laser_cut.svg">
  <defs
     id="defs4" />
  <sodipodi:namedview
     id="base"
     pagecolor="#ffffff"
     bordercolor="#666666"
     borderopacity="1.0"
     inkscape:pageopacity="0.0"
     inkscape:pageshadow="2"
     inkscape:zoom="0.7"
     inkscape:cx="943.98427"
     inkscape:cy="-39.583297"
     inkscape:document-units="px"
     inkscape:current-layer="text4272"
     showgrid="false"
     inkscape:window-width="1920"
     inkscape:window-height="1030"
     inkscape:window-x="1360"
     inkscape:window-y="0"
     inkscape:window-maximized="1"
     fit-margin-top="0"
     fit-margin-left="0"
     fit-margin-right="0"
     fit-margin-bottom="0" />
  <metadata
     id="metadata7">
    <rdf:RDF>
      <cc:Work
         rdf:about="">
        <dc:format>image/svg+xml</dc:format>
        <dc:type
           rdf:resource="http://purl.org/dc/dcmitype/StillImage" />
        <dc:title></dc:title>
      </cc:Work>
    </rdf:RDF>
  </metadata>
  <g
     inkscape:label="Capa 1"
     inkscape:groupmode="layer"
     id="layer1"
     transform="translate(342.90806,-4.6126618)">
    <g
       id="g4138"
       lc:is_construction="false"
       lc:is_locked="false"
       lc:layername="0"
       transform="matrix(3.5433071,0,0,3.5433071,-341.13641,6.3843154)"
       style="fill:none;stroke:#ff0000;stroke-width:1;stroke-opacity:1">
      <path
         id="path4140"
         d="m 0,30 348.2,0 0,-30 L 0,0 0,30 Z"
         inkscape:connector-curvature="0"
         style="stroke:#ff0000;stroke-opacity:1" />
      <circle
         id="circle4142"
         r="3.175"
         cy="15"
         cx="13"
         style="stroke:#ff0000;stroke-opacity:1" />
      <circle
         id="circle4144"
         r="3.175"
         cy="15"
         cx="252"
         style="stroke:#ff0000;stroke-opacity:1" />
      <circle
         id="circle4146"
         r="3.175"
         cy="15"
         cx="311"
         style="stroke:#ff0000;stroke-opacity:1" />
      <circle
         id="circle4148"
         r="3.175"
         cy="15"
         cx="335.20001"
         style="stroke:#ff0000;stroke-opacity:1" />
    </g>
    <g
       transform="matrix(0.80151388,0,0,0.79215079,-42.968821,-73.925414)"
       style="font-style:normal;font-variant:normal;font-weight:normal;font-stretch:normal;font-size:39.99969482px;line-height:125%;font-family:'game robot';-inkscape-font-specification:'game robot, Normal';text-align:start;letter-spacing:0px;word-spacing:0px;writing-mode:lr-tb;text-anchor:start;fill:none;fill-opacity:1;stroke:#0000ff;stroke-width:1px;stroke-linecap:butt;stroke-linejoin:miter;stroke-opacity:1"
       id="flowRoot4162">
      <path
         d="m -319.47077,194.04655 5.46871,0 q 3.59372,0 5.70308,3.74997 0.62499,1.23046 0.62499,2.57811 l 0,12.65615 q 1.87499,0 1.87499,2.49998 l 0,2.26561 q 0,1.97264 -1.24999,2.42186 l -0.46875,0.0781 -3.98434,0 q -1.26952,0 -1.64062,-1.71874 l 0,-3.82809 q 0,-1.38671 1.79687,-1.71874 l 0,-4.14059 q 0,-1.13281 -1.32812,-1.64061 l -0.70312,-0.0781 -2.96873,0 q -2.18748,0 -2.18748,2.42186 l 0,3.43747 q 1.87499,0 1.87499,2.49998 l 0,2.26561 q 0,1.97264 -1.24999,2.42186 l -0.46875,0.0781 -7.57807,0 q -1.64061,-0.37109 -1.64061,-1.64061 l 0,-3.98435 q 0,-1.34764 1.79686,-1.64061 l 0,-12.57803 q 0,-3.67184 3.8281,-5.85933 1.32811,-0.54687 2.49998,-0.54687 z m 0.93749,9.06243 q 0,1.73827 1.32812,2.18749 l 4.21871,0 q 1.64062,-0.33203 1.64062,-1.64062 l 0,-3.82809 q -0.3125,-1.64062 -1.64062,-1.64062 l -3.90622,0 q -1.48436,0 -1.64061,2.10936 l 0,2.81248 z"
         style=""
         id="path4296" />
    </g>
    <g
       transform="matrix(0.80151388,0,0,0.79215079,804.87554,-72.908971)"
       style="font-style:normal;font-variant:normal;font-weight:normal;font-stretch:normal;font-size:39.99969482px;line-height:125%;font-family:'game robot';-inkscape-font-specification:'game robot, Normal';text-align:start;letter-spacing:0px;word-spacing:0px;writing-mode:lr-tb;text-anchor:start;fill:none;fill-opacity:1;stroke:#0000ff;stroke-width:1px;stroke-linecap:butt;stroke-linejoin:miter;stroke-opacity:1"
       id="flowRoot4162-7">
      <path
         d="m -325.9551,194.04655 12.18741,0 q 3.22263,0 5.39058,3.5156 0.78125,1.40624 0.78125,3.2031 l 0,2.03123 q 0,3.12498 -2.57811,4.1406 l -0.62499,0.15625 0,0.15625 q 1.66014,0 2.96872,2.49998 0.23438,0.78124 0.23438,1.79686 l 0,2.03123 q 0,4.68747 -4.76559,6.48433 -0.83984,0.23437 -1.40624,0.23437 l -12.18741,0 q -1.24999,0 -1.64061,-1.71874 l 0,-3.74997 q 0.33203,-1.79686 1.79686,-1.79686 l 0,-11.71866 q -1.79686,-0.35156 -1.79686,-1.79686 l 0,-3.74997 q 0.39062,-1.71874 1.64061,-1.71874 z m 7.49994,5.78121 0,3.82809 q 0.3125,1.64062 1.64062,1.64062 l 3.90622,0 q 1.64061,0 1.64061,-2.42186 l 0,-2.26561 q 0,-2.42186 -1.64061,-2.42186 l -3.74997,0 q -1.79687,0.19532 -1.79687,1.64062 z m 0,10.85929 0,3.82809 q 0,1.44531 1.79687,1.64062 l 3.74997,0 q 1.64061,0 1.64061,-2.42186 l 0,-2.26561 q 0,-2.42185 -1.64061,-2.42185 l -3.90622,0 q -1.64062,0.31249 -1.64062,1.64061 z"
         style=""
         id="path4423" />
    </g>
    <g
       transform="matrix(0.80151388,0,0,0.79215079,1013.9771,-73.919124)"
       style="font-style:normal;font-variant:normal;font-weight:normal;font-stretch:normal;font-size:39.99969482px;line-height:125%;font-family:'game robot';-inkscape-font-specification:'game robot, Normal';text-align:start;letter-spacing:0px;word-spacing:0px;writing-mode:lr-tb;text-anchor:start;fill:none;fill-opacity:1;stroke:#0000ff;stroke-width:1px;stroke-linecap:butt;stroke-linejoin:miter;stroke-opacity:1"
       id="flowRoot4162-5">
      <path
         d="m -321.18951,194.04655 11.95303,0 q 1.30859,0 1.64062,1.71874 l 0,3.82809 q -0.37109,1.71874 -1.71874,1.71874 l -3.8281,0 q -1.71873,-0.37109 -1.71873,-1.64061 l 0,-1.48437 -3.74997,0 q -1.64062,0.23438 -1.64062,1.87499 l 0,14.21864 q 0,1.62108 1.64062,1.87499 l 3.74997,0 0,-1.48437 q 0,-1.26952 1.71873,-1.64061 l 3.8281,0 q 1.71874,0.37109 1.71874,1.71874 l 0,3.82809 q -0.33203,1.71874 -1.64062,1.71874 l -11.95303,0 q -3.90622,0 -6.01558,-4.29684 -0.39062,-1.30859 -0.39062,-3.2031 l 0,-11.24992 q 0,-5.2148 4.06247,-7.03119 1.23046,-0.46875 2.34373,-0.46875 z"
         style=""
         id="path4429" />
    </g>
    <g
       transform="matrix(0.80151388,0,0,0.79215079,1101.3553,-73.414047)"
       style="font-style:normal;font-variant:normal;font-weight:normal;font-stretch:normal;font-size:39.99969482px;line-height:125%;font-family:'game robot';-inkscape-font-specification:'game robot, Normal';text-align:start;letter-spacing:0px;word-spacing:0px;writing-mode:lr-tb;text-anchor:start;fill:none;fill-opacity:1;stroke:#0000ff;stroke-width:1px;stroke-linecap:butt;stroke-linejoin:miter;stroke-opacity:1"
       id="flowRoot4162-8">
      <path
         d="m -325.9551,194.04655 12.18741,0 q 3.22263,0 5.39058,3.5156 0.78125,1.40624 0.78125,3.2031 l 0,12.8124 q 0,4.68747 -4.76559,6.48433 -0.83984,0.23437 -1.40624,0.23437 l -12.18741,0 q -1.32811,0 -1.64061,-1.87498 l 0,-3.59373 q 0.35156,-1.79686 1.79686,-1.79686 l 0,-11.71866 q -1.79686,-0.35156 -1.79686,-1.79686 l 0,-3.5156 q 0,-1.1914 0.93749,-1.71874 0.29297,-0.23437 0.70312,-0.23437 z m 7.49994,5.78121 0,14.68738 q 0.3125,1.64062 1.64062,1.64062 l 3.90622,0 q 1.64061,0 1.64061,-2.42186 l 0,-13.1249 q 0,-2.42186 -1.64061,-2.42186 l -3.90622,0 q -1.64062,0.3125 -1.64062,1.64062 z"
         style=""
         id="path4426" />
    </g>
    <g
       transform="matrix(0.80151388,0,0,0.79215079,85.413086,-129.72851)"
       style="font-style:normal;font-variant:normal;font-weight:normal;font-stretch:normal;font-size:39.99969482px;line-height:125%;font-family:'game robot';-inkscape-font-specification:'game robot, Normal';text-align:start;letter-spacing:0px;word-spacing:0px;writing-mode:lr-tb;text-anchor:start;fill:none;fill-opacity:1;stroke:#0000ff;stroke-width:1px;stroke-linecap:butt;stroke-linejoin:miter;stroke-opacity:1"
       id="flowRoot4162-79">
      <path
         d="m -317.55463,194.04655 11.95304,0 q 1.30858,0 1.64061,1.71874 l 0,3.82809 q -0.37109,1.71874 -1.71874,1.71874 l -3.82809,0 q -1.71874,-0.37109 -1.71874,-1.64061 l 0,-1.48437 -3.74997,0 q -1.64061,0.23438 -1.64061,1.87499 l 0,14.21864 q 0,1.62108 1.64061,1.87499 l 3.74997,0 0,-1.48437 q 0,-1.26952 1.71874,-1.64061 l 3.82809,0 q 1.71874,0.37109 1.71874,1.71874 l 0,3.82809 q -0.33203,1.71874 -1.64061,1.71874 l -11.95304,0 q -3.90622,0 -6.01557,-4.29684 -0.39063,-1.30859 -0.39063,-3.2031 l 0,-11.24992 q 0,-5.2148 4.06247,-7.03119 1.23046,-0.46875 2.34373,-0.46875 z"
         style="font-style:normal;font-variant:normal;font-weight:normal;font-stretch:normal;font-size:39.99969482px;line-height:125%;font-family:'game robot';-inkscape-font-specification:'game robot, Normal';text-align:center;writing-mode:lr-tb;text-anchor:middle"
         id="path4299" />
      <path
         d="m -293.88293,194.04655 5.46871,0 q 3.59372,0 5.70308,3.74997 0.62499,1.23046 0.62499,2.57811 l 0,12.65615 q 1.87499,0 1.87499,2.49998 l 0,2.26561 q 0,1.97264 -1.24999,2.42186 l -0.46875,0.0781 -3.98434,0 q -1.26952,0 -1.64061,-1.71874 l 0,-3.82809 q 0,-1.38671 1.79686,-1.71874 l 0,-4.14059 q 0,-1.13281 -1.32812,-1.64061 l -0.70312,-0.0781 -2.96872,0 q -2.18749,0 -2.18749,2.42186 l 0,3.43747 q 1.87499,0 1.87499,2.49998 l 0,2.26561 q 0,1.97264 -1.24999,2.42186 l -0.46875,0.0781 -7.57807,0 q -1.64061,-0.37109 -1.64061,-1.64061 l 0,-3.98435 q 0,-1.34764 1.79686,-1.64061 l 0,-12.57803 q 0,-3.67184 3.8281,-5.85933 1.32811,-0.54687 2.49998,-0.54687 z m 0.93749,9.06243 q 0,1.73827 1.32812,2.18749 l 4.21871,0 q 1.64062,-0.33203 1.64062,-1.64062 l 0,-3.82809 q -0.3125,-1.64062 -1.64062,-1.64062 l -3.90622,0 q -1.48436,0 -1.64061,2.10936 l 0,2.81248 z"
         style="font-style:normal;font-variant:normal;font-weight:normal;font-stretch:normal;font-size:39.99969482px;line-height:125%;font-family:'game robot';-inkscape-font-specification:'game robot, Normal';text-align:center;writing-mode:lr-tb;text-anchor:middle"
         id="path4301" />
      <path
         d="m -278.68773,194.04655 7.65619,0 q 1.26952,0 1.64061,1.71874 l 0,3.82809 q 0,1.38671 -1.79686,1.71874 l 0,13.20302 q 0.3125,1.64062 1.64061,1.64062 l 3.67185,0 0,-0.625 q 0,-2.05076 1.32811,-2.42185 l 0.46875,-0.0781 3.8281,0 q 1.71873,0.39062 1.71873,1.71874 l 0,3.82809 q -0.37109,1.71874 -1.64061,1.71874 l -11.95303,0 q -3.94529,0 -5.93746,-4.21872 -0.46874,-1.05468 -0.46874,-2.96872 l 0,-11.79679 q -1.79687,-0.35156 -1.79687,-1.79686 l 0,-3.5156 q 0,-1.1914 0.9375,-1.71874 0.29296,-0.23437 0.70312,-0.23437 z"
         style="font-style:normal;font-variant:normal;font-weight:normal;font-stretch:normal;font-size:39.99969482px;line-height:125%;font-family:'game robot';-inkscape-font-specification:'game robot, Normal';text-align:center;writing-mode:lr-tb;text-anchor:middle"
         id="path4303" />
      <path
         d="m -254.89886,194.04655 7.57807,0 q 1.56249,0 1.71874,2.26561 l 0,2.73435 q -0.19531,2.18749 -1.48437,2.18749 l -0.39062,0.0781 0,11.71866 q 1.69921,0 1.87499,2.10936 l 0,2.73435 q 0,1.89452 -1.24999,2.34374 l -0.46875,0.0781 -7.57807,0 q -1.64061,-0.37109 -1.64061,-1.64061 l 0,-3.98435 q 0,-1.32811 1.79686,-1.64061 l 0,-11.71866 q -1.79686,-0.3125 -1.79686,-1.64061 l 0,-3.98435 q 0.37109,-1.64061 1.64061,-1.64061 z"
         style="font-style:normal;font-variant:normal;font-weight:normal;font-stretch:normal;font-size:39.99969482px;line-height:125%;font-family:'game robot';-inkscape-font-specification:'game robot, Normal';text-align:center;writing-mode:lr-tb;text-anchor:middle"
         id="path4305" />
      <path
         d="m -242.00832,194.04655 12.1874,0 q 3.22263,0 5.39059,3.5156 0.78124,1.40624 0.78124,3.2031 l 0,2.03123 q 0,3.12498 -2.5781,4.1406 l -0.625,0.15625 0,0.15625 q 1.66014,0 2.96873,2.49998 0.23437,0.78124 0.23437,1.79686 l 0,2.03123 q 0,4.68747 -4.76559,6.48433 -0.83984,0.23437 -1.40624,0.23437 l -12.1874,0 q -1.24999,0 -1.64062,-1.71874 l 0,-3.74997 q 0.33203,-1.79686 1.79686,-1.79686 l 0,-11.71866 q -1.79686,-0.35156 -1.79686,-1.79686 l 0,-3.74997 q 0.39063,-1.71874 1.64062,-1.71874 z m 7.49994,5.78121 0,3.82809 q 0.3125,1.64062 1.64061,1.64062 l 3.90622,0 q 1.64061,0 1.64061,-2.42186 l 0,-2.26561 q 0,-2.42186 -1.64061,-2.42186 l -3.74997,0 q -1.79686,0.19532 -1.79686,1.64062 z m 0,10.85929 0,3.82809 q 0,1.44531 1.79686,1.64062 l 3.74997,0 q 1.64061,0 1.64061,-2.42186 l 0,-2.26561 q 0,-2.42185 -1.64061,-2.42185 l -3.90622,0 q -1.64061,0.31249 -1.64061,1.64061 z"
         style="font-style:normal;font-variant:normal;font-weight:normal;font-stretch:normal;font-size:39.99969482px;line-height:125%;font-family:'game robot';-inkscape-font-specification:'game robot, Normal';text-align:center;writing-mode:lr-tb;text-anchor:middle"
         id="path4307" />
      <path
         d="m -220.05537,194.04655 4.06247,0 0.85937,0.23437 1.24999,-0.23437 5.78121,0 q 3.59372,0 5.70308,3.74997 0.62499,1.1914 0.62499,2.57811 l 0,4.68746 q 0,0.83984 -0.93749,2.26561 0.93749,0.70312 0.93749,1.48436 l 0,4.21872 q 1.87499,0 1.87499,2.49998 l 0,2.49998 q -0.17578,2.26561 -1.71874,2.26561 l -3.98434,0 q -1.26952,0 -1.64061,-1.71874 l 0,-3.82809 q 0,-1.38671 1.79686,-1.71874 l 0,-2.34373 q -0.3125,-1.64061 -1.64062,-1.64061 l -3.90622,0 q -1.48436,0 -1.64061,2.10936 l 0,1.87498 q 1.87499,0 1.87499,2.49998 l 0,2.26561 q 0,1.97264 -1.24999,2.42186 l -0.46875,0.0781 -7.57807,0 q -1.64061,-0.37109 -1.64061,-1.64061 l 0,-3.98435 q 0,-1.32811 1.79686,-1.64061 l 0,-11.71866 q -1.79686,-0.3125 -1.79686,-1.64061 l 0,-3.98435 q 0.37109,-1.64061 1.64061,-1.64061 z m 7.42182,9.06243 q 0,1.73827 1.32812,2.18749 l 4.21871,0 q 1.64062,-0.3125 1.64062,-1.64062 l 0,-3.82809 q -0.3125,-1.64062 -1.64062,-1.64062 l -3.90622,0 q -1.48436,0 -1.64061,2.10936 l 0,2.81248 z"
         style="font-style:normal;font-variant:normal;font-weight:normal;font-stretch:normal;font-size:39.99969482px;line-height:125%;font-family:'game robot';-inkscape-font-specification:'game robot, Normal';text-align:center;writing-mode:lr-tb;text-anchor:middle"
         id="path4309" />
      <path
         d="m -189.82122,194.04655 5.4687,0 q 3.59373,0 5.70309,3.74997 0.62499,1.23046 0.62499,2.57811 l 0,12.65615 q 1.87499,0 1.87499,2.49998 l 0,2.26561 q 0,1.97264 -1.24999,2.42186 l -0.46875,0.0781 -3.98435,0 q -1.26952,0 -1.64061,-1.71874 l 0,-3.82809 q 0,-1.38671 1.79686,-1.71874 l 0,-4.14059 q 0,-1.13281 -1.32811,-1.64061 l -0.70312,-0.0781 -2.96873,0 q -2.18748,0 -2.18748,2.42186 l 0,3.43747 q 1.87498,0 1.87498,2.49998 l 0,2.26561 q 0,1.97264 -1.24999,2.42186 l -0.46874,0.0781 -7.57807,0 q -1.64061,-0.37109 -1.64061,-1.64061 l 0,-3.98435 q 0,-1.34764 1.79686,-1.64061 l 0,-12.57803 q 0,-3.67184 3.82809,-5.85933 1.32812,-0.54687 2.49999,-0.54687 z m 0.93749,9.06243 q 0,1.73827 1.32811,2.18749 l 4.21872,0 q 1.64061,-0.33203 1.64061,-1.64062 l 0,-3.82809 q -0.31249,-1.64062 -1.64061,-1.64062 l -3.90622,0 q -1.48436,0 -1.64061,2.10936 l 0,2.81248 z"
         style="font-style:normal;font-variant:normal;font-weight:normal;font-stretch:normal;font-size:39.99969482px;line-height:125%;font-family:'game robot';-inkscape-font-specification:'game robot, Normal';text-align:center;writing-mode:lr-tb;text-anchor:middle"
         id="path4311" />
      <path
         d="m -172.55573,194.04655 12.1874,0 q 3.22264,0 5.39059,3.5156 0.78124,1.40624 0.78124,3.2031 l 0,12.8124 q 0,4.68747 -4.76559,6.48433 -0.83983,0.23437 -1.40624,0.23437 l -12.1874,0 q -1.32812,0 -1.64062,-1.87498 l 0,-3.59373 q 0.35156,-1.79686 1.79687,-1.79686 l 0,-11.71866 q -1.79687,-0.35156 -1.79687,-1.79686 l 0,-3.5156 q 0,-1.1914 0.9375,-1.71874 0.29296,-0.23437 0.70312,-0.23437 z m 7.49994,5.78121 0,14.68738 q 0.3125,1.64062 1.64061,1.64062 l 3.90622,0 q 1.64061,0 1.64061,-2.42186 l 0,-13.1249 q 0,-2.42186 -1.64061,-2.42186 l -3.90622,0 q -1.64061,0.3125 -1.64061,1.64062 z"
         style="font-style:normal;font-variant:normal;font-weight:normal;font-stretch:normal;font-size:39.99969482px;line-height:125%;font-family:'game robot';-inkscape-font-specification:'game robot, Normal';text-align:center;writing-mode:lr-tb;text-anchor:middle"
         id="path4313" />
      <path
         d="m -144.5872,193.8903 2.81248,0 q 5.33199,0 7.0312,3.90622 0.62499,1.05468 0.62499,2.73436 l 0,13.1249 q 0,4.31637 -4.45309,6.24995 -1.07421,0.39062 -3.2031,0.39062 l -2.81248,0 q -4.84371,0 -6.64057,-3.12498 -1.01562,-1.48436 -1.01562,-3.28122 l 0,-13.59365 q 0,-3.88669 4.21872,-5.93745 1.11327,-0.46875 3.43747,-0.46875 z m -0.39062,6.17183 0,6.87495 0.0781,0.0781 -0.0781,0.0781 0,7.03119 q 0,1.71874 1.64061,1.95311 l 3.90622,0 q 1.64062,-0.2539 1.64062,-1.87498 l 0,-7.0312 -0.0781,-0.0781 0.0781,-0.0781 0,-6.95307 q 0,-1.67967 -1.56249,-1.95311 l -3.98435,0 q -1.64061,0.23437 -1.64061,1.95311 z"
         style="font-style:normal;font-variant:normal;font-weight:normal;font-stretch:normal;font-size:39.99969482px;line-height:125%;font-family:'game robot';-inkscape-font-specification:'game robot, Normal';text-align:center;writing-mode:lr-tb;text-anchor:middle"
         id="path4315" />
      <path
         d="m -130.5248,194.04655 4.06247,0 0.85936,0.23437 1.24999,-0.23437 5.78121,0 q 3.59372,0 5.70308,3.74997 0.625,1.1914 0.625,2.57811 l 0,4.68746 q 0,0.83984 -0.9375,2.26561 0.9375,0.70312 0.9375,1.48436 l 0,4.21872 q 1.87498,0 1.87498,2.49998 l 0,2.49998 q -0.17578,2.26561 -1.71873,2.26561 l -3.98435,0 q -1.26952,0 -1.64061,-1.71874 l 0,-3.82809 q 0,-1.38671 1.79686,-1.71874 l 0,-2.34373 q -0.3125,-1.64061 -1.64061,-1.64061 l -3.90622,0 q -1.48437,0 -1.64062,2.10936 l 0,1.87498 q 1.87499,0 1.87499,2.49998 l 0,2.26561 q 0,1.97264 -1.24999,2.42186 l -0.46875,0.0781 -7.57806,0 q -1.64062,-0.37109 -1.64062,-1.64061 l 0,-3.98435 q 0,-1.32811 1.79687,-1.64061 l 0,-11.71866 q -1.79687,-0.3125 -1.79687,-1.64061 l 0,-3.98435 q 0.37109,-1.64061 1.64062,-1.64061 z m 7.42181,9.06243 q 0,1.73827 1.32812,2.18749 l 4.21872,0 q 1.64061,-0.3125 1.64061,-1.64062 l 0,-3.82809 q -0.3125,-1.64062 -1.64061,-1.64062 l -3.90622,0 q -1.48437,0 -1.64062,2.10936 l 0,2.81248 z"
         style="font-style:normal;font-variant:normal;font-weight:normal;font-stretch:normal;font-size:39.99969482px;line-height:125%;font-family:'game robot';-inkscape-font-specification:'game robot, Normal';text-align:center;writing-mode:lr-tb;text-anchor:middle"
         id="path4317" />
      <path
         d="m -95.603189,194.04655 11.953034,0 q 3.593723,0 5.703082,3.74997 0.624995,1.23046 0.624995,2.57811 l 0,4.37496 q 0,2.91014 -3.359349,4.1406 -0.664058,0.15625 -1.718737,0.15625 l -4.140594,0 q -1.484363,0 -1.640612,2.10936 l 0,1.87498 q 1.874986,0 1.874986,2.49998 l 0,2.26561 q 0,1.97264 -1.249991,2.42186 l -0.468746,0.0781 -7.578068,0 q -1.542956,0 -1.718736,-2.26561 l 0,-2.49998 q 0,-2.49998 1.874985,-2.49998 l 0,-11.71866 q -1.874985,0 -1.874985,-2.49998 l 0,-2.26561 q 0,-1.99217 1.24999,-2.42185 l 0.468746,-0.0781 z m 7.421819,9.06243 q 0,1.73827 1.328115,2.18749 l 4.218718,0 q 1.640612,-0.33203 1.640612,-1.64062 l 0,-3.82809 q -0.312498,-1.64062 -1.640612,-1.64062 l -3.906221,0 q -1.484363,0 -1.640612,2.10936 l 0,2.81248 z"
         style="font-style:normal;font-variant:normal;font-weight:normal;font-stretch:normal;font-size:39.99969482px;line-height:125%;font-family:'game robot';-inkscape-font-specification:'game robot, Normal';text-align:center;writing-mode:lr-tb;text-anchor:middle"
         id="path4319" />
      <path
         d="m -67.24403,194.04655 5.468708,0 q 3.593723,0 5.703082,3.74997 0.624995,1.23046 0.624995,2.57811 l 0,12.65615 q 1.874985,0 1.874985,2.49998 l 0,2.26561 q 0,1.97264 -1.24999,2.42186 l -0.468746,0.0781 -3.984345,0 q -1.269522,0 -1.640613,-1.71874 l 0,-3.82809 q 0,-1.38671 1.796862,-1.71874 l 0,-4.14059 q 0,-1.13281 -1.328115,-1.64061 l -0.70312,-0.0781 -2.968727,0 q -2.187483,0 -2.187483,2.42186 l 0,3.43747 q 1.874985,0 1.874985,2.49998 l 0,2.26561 q 0,1.97264 -1.24999,2.42186 l -0.468747,0.0781 -7.578067,0 q -1.640612,-0.37109 -1.640612,-1.64061 l 0,-3.98435 q 0,-1.34764 1.796861,-1.64061 l 0,-12.57803 q 0,-3.67184 3.828096,-5.85933 1.328115,-0.54687 2.499981,-0.54687 z m 0.937493,9.06243 q 0,1.73827 1.328114,2.18749 l 4.218718,0 q 1.640613,-0.33203 1.640613,-1.64062 l 0,-3.82809 q -0.312498,-1.64062 -1.640613,-1.64062 l -3.90622,0 q -1.484364,0 -1.640612,2.10936 l 0,2.81248 z"
         style="font-style:normal;font-variant:normal;font-weight:normal;font-stretch:normal;font-size:39.99969482px;line-height:125%;font-family:'game robot';-inkscape-font-specification:'game robot, Normal';text-align:center;writing-mode:lr-tb;text-anchor:middle"
         id="path4321" />
      <path
         d="m -49.978539,194.04655 4.062469,0 0.859369,0.23437 1.24999,-0.23437 5.781206,0 q 3.593723,0 5.703081,3.74997 0.624996,1.1914 0.624996,2.57811 l 0,4.68746 q 0,0.83984 -0.937493,2.26561 0.937493,0.70312 0.937493,1.48436 l 0,4.21872 q 1.874985,0 1.874985,2.49998 l 0,2.49998 q -0.17578,2.26561 -1.718737,2.26561 l -3.984344,0 q -1.269522,0 -1.640613,-1.71874 l 0,-3.82809 q 0,-1.38671 1.796862,-1.71874 l 0,-2.34373 q -0.312498,-1.64061 -1.640613,-1.64061 l -3.90622,0 q -1.484364,0 -1.640612,2.10936 l 0,1.87498 q 1.874985,0 1.874985,2.49998 l 0,2.26561 q 0,1.97264 -1.24999,2.42186 l -0.468747,0.0781 -7.578067,0 q -1.640612,-0.37109 -1.640612,-1.64061 l 0,-3.98435 q 0,-1.32811 1.796861,-1.64061 l 0,-11.71866 q -1.796861,-0.3125 -1.796861,-1.64061 l 0,-3.98435 q 0.371091,-1.64061 1.640612,-1.64061 z m 7.421819,9.06243 q 0,1.73827 1.328114,2.18749 l 4.218718,0 q 1.640613,-0.3125 1.640613,-1.64062 l 0,-3.82809 q -0.312498,-1.64062 -1.640613,-1.64062 l -3.90622,0 q -1.484364,0 -1.640612,2.10936 l 0,2.81248 z"
         style="font-style:normal;font-variant:normal;font-weight:normal;font-stretch:normal;font-size:39.99969482px;line-height:125%;font-family:'game robot';-inkscape-font-specification:'game robot, Normal';text-align:center;writing-mode:lr-tb;text-anchor:middle"
         id="path4323" />
      <path
         d="m -19.744396,194.04655 5.468708,0 q 3.593722,0 5.7030813,3.74997 0.6249952,1.23046 0.6249952,2.57811 l 0,12.65615 q 1.8749857,0 1.8749857,2.49998 l 0,2.26561 q 0,1.97264 -1.2499904,2.42186 l -0.4687464,0.0781 -3.9843444,0 q -1.269522,0 -1.640613,-1.71874 l 0,-3.82809 q 0,-1.38671 1.796862,-1.71874 l 0,-4.14059 q 0,-1.13281 -1.328115,-1.64061 l -0.70312,-0.0781 -2.968727,0 q -2.187484,0 -2.187484,2.42186 l 0,3.43747 q 1.874986,0 1.874986,2.49998 l 0,2.26561 q 0,1.97264 -1.24999,2.42186 l -0.468747,0.0781 -7.578067,0 q -1.640612,-0.37109 -1.640612,-1.64061 l 0,-3.98435 q 0,-1.34764 1.796861,-1.64061 l 0,-12.57803 q 0,-3.67184 3.828096,-5.85933 1.328114,-0.54687 2.499981,-0.54687 z m 0.937492,9.06243 q 0,1.73827 1.328115,2.18749 l 4.218718,0 q 1.640613,-0.33203 1.640613,-1.64062 l 0,-3.82809 q -0.312498,-1.64062 -1.640613,-1.64062 l -3.90622,0 q -1.484364,0 -1.640613,2.10936 l 0,2.81248 z"
         style="font-style:normal;font-variant:normal;font-weight:normal;font-stretch:normal;font-size:39.99969482px;line-height:125%;font-family:'game robot';-inkscape-font-specification:'game robot, Normal';text-align:center;writing-mode:lr-tb;text-anchor:middle"
         id="path4325" />
      <path
         d="m 13.302218,194.04655 11.953033,0 q 1.562488,0 1.718737,2.26561 l 0,2.73435 q 0,1.73827 -1.328115,2.18749 l -0.468746,0.0781 -3.828096,0 q -1.718737,-0.39062 -1.718737,-1.71874 l 0,-1.40624 -3.749971,0 q -1.484364,0 -1.640613,2.10936 l 0,2.81248 q 0,1.73827 1.328115,2.18749 l 1.874986,0 q 1.718737,0 2.187483,1.32811 l 0.07813,0.625 q 0,1.52342 -2.031235,1.79686 l -1.796861,0 q -1.484364,0 -1.640613,2.10936 l 0,2.81247 q 0,1.73827 1.328115,2.18749 l 4.062469,0 0,-1.40624 q 0.390622,-1.71874 1.718737,-1.71874 l 3.828096,0 q 1.621081,0 1.796861,2.18748 l 0,2.65623 q 0,1.89452 -1.24999,2.34374 l -0.468747,0.0781 -11.953033,0 q -3.4765364,0 -5.6249575,-3.59372 -0.7031196,-1.34765 -0.7031196,-2.81248 l 0,-13.4374 q 0,-4.0234 4.2968421,-6.01558 0.8789,-0.39062 2.031235,-0.39062 z"
         style="font-style:normal;font-variant:normal;font-weight:normal;font-stretch:normal;font-size:39.99969482px;line-height:125%;font-family:'game robot';-inkscape-font-specification:'game robot, Normal';text-align:center;writing-mode:lr-tb;text-anchor:middle"
         id="path4327" />
      <path
         d="m 30.567726,194.04655 7.656191,0 q 1.269522,0 1.640613,1.71874 l 0,3.82809 q 0,1.38671 -1.796861,1.71874 l 0,13.20302 q 0.312497,1.64062 1.640612,1.64062 l 3.671847,0 0,-0.625 q 0,-2.05076 1.328115,-2.42185 l 0.468746,-0.0781 3.828096,0 q 1.718737,0.39062 1.718737,1.71874 l 0,3.82809 q -0.371091,1.71874 -1.640612,1.71874 l -11.953034,0 q -3.945283,0 -5.937455,-4.21872 -0.468746,-1.05468 -0.468746,-2.96872 l 0,-11.79679 q -1.796862,-0.35156 -1.796862,-1.79686 l 0,-3.5156 q 0,-1.1914 0.937493,-1.71874 0.292967,-0.23437 0.70312,-0.23437 z"
         style="font-style:normal;font-variant:normal;font-weight:normal;font-stretch:normal;font-size:39.99969482px;line-height:125%;font-family:'game robot';-inkscape-font-specification:'game robot, Normal';text-align:center;writing-mode:lr-tb;text-anchor:middle"
         id="path4329" />
      <path
         d="m 71.895527,194.04655 5.468708,0 q 3.593723,0 5.703081,3.74997 0.624996,1.23046 0.624996,2.57811 l 0,12.65615 q 1.874985,0 1.874985,2.49998 l 0,2.26561 q 0,1.97264 -1.24999,2.42186 l -0.468747,0.0781 -3.984344,0 q -1.269522,0 -1.640613,-1.71874 l 0,-3.82809 q 0,-1.38671 1.796862,-1.71874 l 0,-4.14059 q 0,-1.13281 -1.328115,-1.64061 l -0.70312,-0.0781 -2.968727,0 q -2.187484,0 -2.187484,2.42186 l 0,3.43747 q 1.874986,0 1.874986,2.49998 l 0,2.26561 q 0,1.97264 -1.24999,2.42186 l -0.468747,0.0781 -7.578067,0 q -1.640612,-0.37109 -1.640612,-1.64061 l 0,-3.98435 q 0,-1.34764 1.796861,-1.64061 l 0,-12.57803 q 0,-3.67184 3.828096,-5.85933 1.328115,-0.54687 2.499981,-0.54687 z m 0.937492,9.06243 q 0,1.73827 1.328115,2.18749 l 4.218718,0 q 1.640613,-0.33203 1.640613,-1.64062 l 0,-3.82809 q -0.312498,-1.64062 -1.640613,-1.64062 l -3.90622,0 q -1.484364,0 -1.640613,2.10936 l 0,2.81248 z"
         style="font-style:normal;font-variant:normal;font-weight:normal;font-stretch:normal;font-size:39.99969482px;line-height:125%;font-family:'game robot';-inkscape-font-specification:'game robot, Normal';text-align:center;writing-mode:lr-tb;text-anchor:middle"
         id="path4331" />
      <path
         d="m 93.535985,194.04655 7.656195,0 q 3.47653,0 5.62495,3.59372 0.70312,1.34765 0.70312,2.81248 l 0,13.4374 q 0,4.02341 -4.29684,6.01558 -0.8789,0.39062 -2.03123,0.39062 l -11.953038,0 q -1.542957,0 -1.718736,-2.26561 l 0,-2.49998 q 0,-2.05076 1.328114,-2.42185 l 0.468747,-0.0781 7.421818,0 q 1.718737,0.37109 1.718737,1.64061 l 0,1.48437 3.749968,0 q 1.64062,-0.3125 1.64062,-1.71874 l 0,-14.29677 q 0,-1.28905 -1.01562,-1.79686 l 0,1.24999 q -0.39062,1.71874 -1.71874,1.71874 l -7.499941,0 q -1.347646,0 -1.718737,-1.79686 l 0,-3.5156 q 0,-1.1914 0.937493,-1.71874 0.292967,-0.23437 0.70312,-0.23437 z"
         style="font-style:normal;font-variant:normal;font-weight:normal;font-stretch:normal;font-size:39.99969482px;line-height:125%;font-family:'game robot';-inkscape-font-specification:'game robot, Normal';text-align:center;writing-mode:lr-tb;text-anchor:middle"
         id="path4333" />
      <path
         d="m 111.11399,194.04655 7.65619,0 q 1.24999,0 1.64061,1.71874 l 0,3.74997 q -0.35156,1.79686 -1.79686,1.79686 l 0,13.20302 q 0,1.44531 1.79686,1.64062 l 3.5156,0 0,-0.85937 q 0,-1.64061 1.24999,-2.18748 l 0.54687,-0.0781 0,-11.71866 q -1.60155,0 -1.79686,-2.18748 l 0,-2.89061 q 0.19531,-2.18748 1.71874,-2.18748 l 3.98434,0 q 1.26953,0 1.64062,1.71874 l 0,3.90622 q -0.42969,1.64061 -1.79686,1.64061 l 0,11.71866 q 1.79686,0.33203 1.79686,1.71874 l 0,3.82809 q -0.37109,1.71874 -1.64062,1.71874 l -4.14059,0 -0.70312,-0.23437 -1.48436,0.23437 -5.85933,0 q -3.22263,0 -5.39059,-3.5156 -0.78124,-1.42577 -0.78124,-3.2031 l 0,-12.26553 q -1.79686,-0.33203 -1.79686,-1.71874 l 0,-3.82809 q 0.37109,-1.71874 1.64061,-1.71874 z"
         style="font-style:normal;font-variant:normal;font-weight:normal;font-stretch:normal;font-size:39.99969482px;line-height:125%;font-family:'game robot';-inkscape-font-specification:'game robot, Normal';text-align:center;writing-mode:lr-tb;text-anchor:middle"
         id="path4335" />
      <path
         d="m 141.11376,194.04655 12.18741,0 q 1.26952,0 1.64061,1.71874 l 0,3.82809 q -0.39062,1.71874 -1.71874,1.71874 l -3.82809,0 q -1.60155,0 -1.79686,-2.18748 l 0,-0.9375 -3.67185,0 q -1.64061,0.3125 -1.64061,1.64062 l 0,3.59372 q 0.31249,1.64061 1.56248,1.64061 l 6.79683,0 q 2.49998,0 2.49998,2.03124 l 0,6.48432 q 0,4.68747 -4.76559,6.48433 -0.83984,0.23437 -1.40624,0.23437 l -12.10928,0 q -1.26952,0 -1.64062,-1.71874 l 0,-3.82809 q 0.39063,-1.71874 1.71874,-1.71874 l 7.49994,0 q 1.46484,0 1.71874,2.03124 l 0,1.09374 3.67185,0 q 1.64061,0 1.64061,-2.42186 l 0,-2.26561 q 0,-1.73826 -1.32811,-2.18748 l -8.59369,0 q -4.60934,0 -4.60934,-4.21872 l 0,-3.98434 q 0,-4.88278 4.37497,-6.64058 0.91796,-0.39062 1.79686,-0.39062 z"
         style="font-style:normal;font-variant:normal;font-weight:normal;font-stretch:normal;font-size:39.99969482px;line-height:125%;font-family:'game robot';-inkscape-font-specification:'game robot, Normal';text-align:center;writing-mode:lr-tb;text-anchor:middle"
         id="path4337" />
      <path
         d="m 180.64471,194.04655 q 1.64061,0.37109 1.64061,1.64061 l 0,3.98435 q 0,1.30858 -1.71874,1.64061 l -3.82809,0 q -1.71874,-0.37109 -1.71874,-1.71874 l 0,-1.40624 -0.15625,0 q -1.56249,0.33203 -1.56249,1.56249 l 0,13.28115 q 1.58202,0 1.79686,2.03124 l 0,3.2031 q 0,1.36717 -1.17186,1.95311 l -0.70312,0.0781 -7.42182,0 q -1.30858,0 -1.64061,-1.71874 l 0,-3.82809 q 0,-1.40624 1.79686,-1.71874 l 0,-11.71866 -7.10932,0 q -1.95311,0 -1.95311,-2.26561 l 0,-2.81248 q 0.19531,-2.18748 1.71873,-2.18748 l 22.03109,0 z"
         style="font-style:normal;font-variant:normal;font-weight:normal;font-stretch:normal;font-size:39.99969482px;line-height:125%;font-family:'game robot';-inkscape-font-specification:'game robot, Normal';text-align:center;writing-mode:lr-tb;text-anchor:middle"
         id="path4339" />
      <path
         d="m 190.5665,194.04655 11.95303,0 q 1.56249,0 1.71874,2.26561 l 0,2.73435 q 0,1.73827 -1.32811,2.18749 l -0.46875,0.0781 -3.8281,0 q -1.71873,-0.39062 -1.71873,-1.71874 l 0,-1.40624 -3.74997,0 q -1.48437,0 -1.64062,2.10936 l 0,2.81248 q 0,1.73827 1.32812,2.18749 l 1.87498,0 q 1.71874,0 2.18749,1.32811 l 0.0781,0.625 q 0,1.52342 -2.03123,1.79686 l -1.79686,0 q -1.48437,0 -1.64062,2.10936 l 0,2.81247 q 0,1.73827 1.32812,2.18749 l 4.06247,0 0,-1.40624 q 0.39062,-1.71874 1.71873,-1.71874 l 3.8281,0 q 1.62108,0 1.79686,2.18748 l 0,2.65623 q 0,1.89452 -1.24999,2.34374 l -0.46875,0.0781 -11.95303,0 q -3.47654,0 -5.62496,-3.59372 -0.70312,-1.34765 -0.70312,-2.81248 l 0,-13.4374 q 0,-4.0234 4.29685,-6.01558 0.87889,-0.39062 2.03123,-0.39062 z"
         style="font-style:normal;font-variant:normal;font-weight:normal;font-stretch:normal;font-size:39.99969482px;line-height:125%;font-family:'game robot';-inkscape-font-specification:'game robot, Normal';text-align:center;writing-mode:lr-tb;text-anchor:middle"
         id="path4341" />
      <path
         d="m 218.92564,194.04655 12.1874,0 q 3.22263,0 5.39059,3.5156 0.78124,1.40624 0.78124,3.2031 l 0,12.8124 q 0,4.68747 -4.76559,6.48433 -0.83984,0.23437 -1.40624,0.23437 l -12.1874,0 q -1.32812,0 -1.64062,-1.87498 l 0,-3.59373 q 0.35156,-1.79686 1.79686,-1.79686 l 0,-11.71866 q -1.79686,-0.35156 -1.79686,-1.79686 l 0,-3.5156 q 0,-1.1914 0.9375,-1.71874 0.29296,-0.23437 0.70312,-0.23437 z m 7.49994,5.78121 0,14.68738 q 0.3125,1.64062 1.64061,1.64062 l 3.90622,0 q 1.64061,0 1.64061,-2.42186 l 0,-13.1249 q 0,-2.42186 -1.64061,-2.42186 l -3.90622,0 q -1.64061,0.3125 -1.64061,1.64062 z"
         style="font-style:normal;font-variant:normal;font-weight:normal;font-stretch:normal;font-size:39.99969482px;line-height:125%;font-family:'game robot';-inkscape-font-specification:'game robot, Normal';text-align:center;writing-mode:lr-tb;text-anchor:middle"
         id="path4343" />
      <path
         d="m 245.5661,194.04655 11.95304,0 q 1.56248,0 1.71873,2.26561 l 0,2.73435 q 0,1.73827 -1.32811,2.18749 l -0.46875,0.0781 -3.82809,0 q -1.71874,-0.39062 -1.71874,-1.71874 l 0,-1.40624 -3.74997,0 q -1.48437,0 -1.64061,2.10936 l 0,2.81248 q 0,1.73827 1.32811,2.18749 l 1.87499,0 q 1.71873,0 2.18748,1.32811 l 0.0781,0.625 q 0,1.52342 -2.03123,1.79686 l -1.79686,0 q -1.48437,0 -1.64061,2.10936 l 0,2.81247 q 0,1.73827 1.32811,2.18749 l 4.06247,0 0,-1.40624 q 0.39062,-1.71874 1.71874,-1.71874 l 3.82809,0 q 1.62108,0 1.79686,2.18748 l 0,2.65623 q 0,1.89452 -1.24999,2.34374 l -0.46874,0.0781 -11.95304,0 q -3.47653,0 -5.62495,-3.59372 -0.70312,-1.34765 -0.70312,-2.81248 l 0,-13.4374 q 0,-4.0234 4.29684,-6.01558 0.8789,-0.39062 2.03123,-0.39062 z"
         style="font-style:normal;font-variant:normal;font-weight:normal;font-stretch:normal;font-size:39.99969482px;line-height:125%;font-family:'game robot';-inkscape-font-specification:'game robot, Normal';text-align:center;writing-mode:lr-tb;text-anchor:middle"
         id="path4345" />
      <path
         d="m 262.83158,194.04655 7.65619,0 q 1.26952,0 1.64061,1.71874 l 0,3.82809 q 0,1.38671 -1.79686,1.71874 l 0,13.20302 q 0.3125,1.64062 1.64062,1.64062 l 3.67184,0 0,-0.625 q 0,-2.05076 1.32812,-2.42185 l 0.46874,-0.0781 3.8281,0 q 1.71874,0.39062 1.71874,1.71874 l 0,3.82809 q -0.37109,1.71874 -1.64062,1.71874 l -11.95303,0 q -3.94528,0 -5.93745,-4.21872 -0.46875,-1.05468 -0.46875,-2.96872 l 0,-11.79679 q -1.79686,-0.35156 -1.79686,-1.79686 l 0,-3.5156 q 0,-1.1914 0.93749,-1.71874 0.29297,-0.23437 0.70312,-0.23437 z"
         style="font-style:normal;font-variant:normal;font-weight:normal;font-stretch:normal;font-size:39.99969482px;line-height:125%;font-family:'game robot';-inkscape-font-specification:'game robot, Normal';text-align:center;writing-mode:lr-tb;text-anchor:middle"
         id="path4347" />
      <path
         d="m 297.67503,194.04655 7.65619,0 q 1.26952,0 1.64061,1.71874 l 0,3.82809 q 0,1.38671 -1.79686,1.71874 l 0,2.34373 q 0.3125,1.64062 1.64061,1.64062 l 3.90622,0 q 1.48436,0 1.64061,-2.10936 l 0,-1.87499 q -1.79686,-0.3125 -1.79686,-1.64061 l 0,-3.98435 q 0.37109,-1.64061 1.64061,-1.64061 l 3.98435,0 q 1.40624,0 1.64061,1.87499 l 0,3.67184 q 0,1.40624 -1.79686,1.71874 l 0,11.71866 q 1.79686,0.33203 1.79686,1.71874 l 0,3.82809 q -0.37109,1.71874 -1.64061,1.71874 l -3.98435,0 q -1.54295,0 -1.71873,-2.26561 l 0,-2.49998 q 0,-2.49998 1.87498,-2.49998 l 0,-1.79686 q 0,-1.73827 -1.32811,-2.18748 l -4.21872,0 q -1.64061,0.31249 -1.64061,1.64061 l 0,2.34373 q 1.79686,0.33203 1.79686,1.71874 l 0,3.82809 q -0.37109,1.71874 -1.64061,1.71874 l -7.65619,0 q -1.32812,0 -1.64062,-1.87498 l 0,-3.59373 q 0.37109,-1.79686 1.79686,-1.79686 l 0,-11.71866 q -1.79686,-0.35156 -1.79686,-1.79686 l 0,-3.5156 q 0,-1.1914 0.9375,-1.71874 0.29296,-0.23437 0.70312,-0.23437 z"
         style="font-style:normal;font-variant:normal;font-weight:normal;font-stretch:normal;font-size:39.99969482px;line-height:125%;font-family:'game robot';-inkscape-font-specification:'game robot, Normal';text-align:center;writing-mode:lr-tb;text-anchor:middle"
         id="path4349" />
      <path
         d="m 327.44042,193.8903 2.81248,0 q 5.33199,0 7.0312,3.90622 0.62499,1.05468 0.62499,2.73436 l 0,13.1249 q 0,4.31637 -4.45309,6.24995 -1.07421,0.39062 -3.2031,0.39062 l -2.81248,0 q -4.84371,0 -6.64057,-3.12498 -1.01562,-1.48436 -1.01562,-3.28122 l 0,-13.59365 q 0,-3.88669 4.21872,-5.93745 1.11327,-0.46875 3.43747,-0.46875 z m -0.39062,6.17183 0,6.87495 0.0781,0.0781 -0.0781,0.0781 0,7.03119 q 0,1.71874 1.64061,1.95311 l 3.90622,0 q 1.64061,-0.2539 1.64061,-1.87498 l 0,-7.0312 -0.0781,-0.0781 0.0781,-0.0781 0,-6.95307 q 0,-1.67967 -1.56248,-1.95311 l -3.98435,0 q -1.64061,0.23437 -1.64061,1.95311 z"
         style="font-style:normal;font-variant:normal;font-weight:normal;font-stretch:normal;font-size:39.99969482px;line-height:125%;font-family:'game robot';-inkscape-font-specification:'game robot, Normal';text-align:center;writing-mode:lr-tb;text-anchor:middle"
         id="path4351" />
      <path
         d="m 341.50285,194.04655 4.06246,0 0.85937,0.23437 1.24999,-0.23437 5.78121,0 q 2.34373,0 4.53121,1.95311 l 0.0781,0 q 2.0117,-1.95311 4.21872,-1.95311 l 2.03123,0 q 4.02341,0 6.0937,4.53122 0.3125,1.36717 0.3125,3.43747 l 0,11.01554 q 1.62108,0 1.79686,2.18748 l 0,2.89061 q -0.19531,2.18748 -1.71873,2.18748 l -3.98435,0 q -1.26952,0 -1.64061,-1.71874 l 0,-3.74997 q 0.33203,-1.79686 1.79686,-1.79686 l 0,-13.20302 q 0,-1.4453 -1.79686,-1.64062 l -3.74997,0 q -1.64061,0 -1.64061,2.42186 l 0,12.42178 q 1.79686,0.25391 1.79686,1.71874 l 0.0781,0.54687 0,2.5781 q 0,1.89452 -1.24999,2.34374 l -0.46875,0.0781 -3.98434,0 q -1.26952,0 -1.64061,-1.71874 l 0,-3.82809 q 0,-1.38671 1.79686,-1.71874 l 0,-13.20302 q 0,-1.4453 -1.79686,-1.64062 l -3.74997,0 q -1.64062,0 -1.64062,2.42186 l 0,12.42178 0.15625,0 q 1.95311,0 1.95311,2.18748 l 0,3.04686 q 0,1.36717 -1.17186,1.95311 l -0.70312,0.0781 -7.65619,0 q -1.64062,-0.37109 -1.64062,-1.64061 l 0,-3.98435 q 0,-1.32811 1.79686,-1.64061 l 0,-11.71866 q -1.79686,-0.3125 -1.79686,-1.64061 l 0,-3.98435 q 0.37109,-1.64061 1.64062,-1.64061 z"
         style="font-style:normal;font-variant:normal;font-weight:normal;font-stretch:normal;font-size:39.99969482px;line-height:125%;font-family:'game robot';-inkscape-font-specification:'game robot, Normal';text-align:center;writing-mode:lr-tb;text-anchor:middle"
         id="path4353" />
      <path
         d="m 380.79944,194.04655 11.95303,0 q 1.56249,0 1.71874,2.26561 l 0,2.73435 q 0,1.73827 -1.32811,2.18749 l -0.46875,0.0781 -3.8281,0 q -1.71873,-0.39062 -1.71873,-1.71874 l 0,-1.40624 -3.74997,0 q -1.48437,0 -1.64062,2.10936 l 0,2.81248 q 0,1.73827 1.32812,2.18749 l 1.87498,0 q 1.71874,0 2.18749,1.32811 l 0.0781,0.625 q 0,1.52342 -2.03123,1.79686 l -1.79686,0 q -1.48437,0 -1.64062,2.10936 l 0,2.81247 q 0,1.73827 1.32812,2.18749 l 4.06247,0 0,-1.40624 q 0.39062,-1.71874 1.71873,-1.71874 l 3.8281,0 q 1.62108,0 1.79686,2.18748 l 0,2.65623 q 0,1.89452 -1.24999,2.34374 l -0.46875,0.0781 -11.95303,0 q -3.47654,0 -5.62496,-3.59372 -0.70312,-1.34765 -0.70312,-2.81248 l 0,-13.4374 q 0,-4.0234 4.29685,-6.01558 0.8789,-0.39062 2.03123,-0.39062 z"
         style="font-style:normal;font-variant:normal;font-weight:normal;font-stretch:normal;font-size:39.99969482px;line-height:125%;font-family:'game robot';-inkscape-font-specification:'game robot, Normal';text-align:center;writing-mode:lr-tb;text-anchor:middle"
         id="path4355" />
      <path
         d="m 409.15861,194.04655 12.1874,0 q 3.22264,0 5.39059,3.5156 0.78124,1.40624 0.78124,3.2031 l 0,12.8124 q 0,4.68747 -4.76559,6.48433 -0.83983,0.23437 -1.40624,0.23437 l -12.1874,0 q -1.32812,0 -1.64062,-1.87498 l 0,-3.59373 q 0.35156,-1.79686 1.79687,-1.79686 l 0,-11.71866 q -1.79687,-0.35156 -1.79687,-1.79686 l 0,-3.5156 q 0,-1.1914 0.9375,-1.71874 0.29296,-0.23437 0.70312,-0.23437 z m 7.49994,5.78121 0,14.68738 q 0.3125,1.64062 1.64061,1.64062 l 3.90622,0 q 1.64062,0 1.64062,-2.42186 l 0,-13.1249 q 0,-2.42186 -1.64062,-2.42186 l -3.90622,0 q -1.64061,0.3125 -1.64061,1.64062 z"
         style="font-style:normal;font-variant:normal;font-weight:normal;font-stretch:normal;font-size:39.99969482px;line-height:125%;font-family:'game robot';-inkscape-font-specification:'game robot, Normal';text-align:center;writing-mode:lr-tb;text-anchor:middle"
         id="path4357" />
      <path
         d="m 435.79901,194.04655 11.95304,0 q 1.56249,0 1.71873,2.26561 l 0,2.73435 q 0,1.73827 -1.32811,2.18749 l -0.46875,0.0781 -3.82809,0 q -1.71874,-0.39062 -1.71874,-1.71874 l 0,-1.40624 -3.74997,0 q -1.48437,0 -1.64061,2.10936 l 0,2.81248 q 0,1.73827 1.32811,2.18749 l 1.87499,0 q 1.71873,0 2.18748,1.32811 l 0.0781,0.625 q 0,1.52342 -2.03123,1.79686 l -1.79686,0 q -1.48437,0 -1.64061,2.10936 l 0,2.81247 q 0,1.73827 1.32811,2.18749 l 4.06247,0 0,-1.40624 q 0.39062,-1.71874 1.71874,-1.71874 l 3.82809,0 q 1.62108,0 1.79686,2.18748 l 0,2.65623 q 0,1.89452 -1.24999,2.34374 l -0.46874,0.0781 -11.95304,0 q -3.47653,0 -5.62495,-3.59372 -0.70312,-1.34765 -0.70312,-2.81248 l 0,-13.4374 q 0,-4.0234 4.29684,-6.01558 0.8789,-0.39062 2.03123,-0.39062 z"
         style="font-style:normal;font-variant:normal;font-weight:normal;font-stretch:normal;font-size:39.99969482px;line-height:125%;font-family:'game robot';-inkscape-font-specification:'game robot, Normal';text-align:center;writing-mode:lr-tb;text-anchor:middle"
         id="path4359" />
      <path
         d="m 453.06449,194.04655 7.65619,0 q 1.26952,0 1.64061,1.71874 l 0,3.82809 q 0,1.38671 -1.79686,1.71874 l 0,13.20302 q 0.3125,1.64062 1.64062,1.64062 l 3.67184,0 0,-0.625 q 0,-2.05076 1.32812,-2.42185 l 0.46874,-0.0781 3.8281,0 q 1.71874,0.39062 1.71874,1.71874 l 0,3.82809 q -0.37109,1.71874 -1.64062,1.71874 l -11.95303,0 q -3.94528,0 -5.93745,-4.21872 -0.46875,-1.05468 -0.46875,-2.96872 l 0,-11.79679 q -1.79686,-0.35156 -1.79686,-1.79686 l 0,-3.5156 q 0,-1.1914 0.93749,-1.71874 0.29297,-0.23437 0.70312,-0.23437 z"
         style="font-style:normal;font-variant:normal;font-weight:normal;font-stretch:normal;font-size:39.99969482px;line-height:125%;font-family:'game robot';-inkscape-font-specification:'game robot, Normal';text-align:center;writing-mode:lr-tb;text-anchor:middle"
         id="path4361" />
      <path
         d="m -48.103556,244.04617 12.187407,0 q 1.269522,0 1.640613,1.71874 l 0,3.82809 q -0.390622,1.71874 -1.718737,1.71874 l -3.828096,0 q -1.60155,0 -1.796861,-2.18748 l 0,-0.9375 -3.671847,0 q -1.640613,0.3125 -1.640613,1.64062 l 0,3.59372 q 0.312498,1.64061 1.562488,1.64061 l 6.796823,0 q 2.499981,0 2.499981,2.03124 l 0,6.48432 q 0,4.68746 -4.765588,6.48433 -0.839838,0.23437 -1.40624,0.23437 l -12.109282,0 q -1.269522,0 -1.640613,-1.71874 l 0,-3.82809 q 0.390622,-1.71874 1.718737,-1.71874 l 7.499943,0 q 1.464833,0 1.718737,2.03123 l 0,1.09375 3.671847,0 q 1.640612,0 1.640612,-2.42186 l 0,-2.26561 q 0,-1.73827 -1.328114,-2.18748 l -8.593685,0 q -4.60934,0 -4.60934,-4.21872 l 0,-3.98434 q 0,-4.88278 4.374967,-6.64058 0.917962,-0.39062 1.796861,-0.39062 z"
         style="font-style:normal;font-variant:normal;font-weight:normal;font-stretch:normal;font-size:39.99969482px;line-height:125%;font-family:'game robot';-inkscape-font-specification:'game robot, Normal';text-align:center;writing-mode:lr-tb;text-anchor:middle"
         id="path4363" />
      <path
         d="m -25.916226,244.04617 11.953034,0 q 1.308584,0 1.640613,1.71874 l 0,3.82809 q -0.371091,1.71874 -1.718737,1.71874 l -3.828096,0 q -1.718737,-0.37109 -1.718737,-1.64061 l 0,-1.48437 -3.749971,0 q -1.640613,0.23438 -1.640613,1.87499 l 0,14.21864 q 0,1.62108 1.640613,1.87499 l 3.749971,0 0,-1.48437 q 0,-1.26952 1.718737,-1.64061 l 3.828096,0 q 1.718737,0.37109 1.718737,1.71874 l 0,3.82809 q -0.332029,1.71874 -1.640613,1.71874 l -11.953034,0 q -3.90622,0 -6.015579,-4.29684 -0.390622,-1.30859 -0.390622,-3.2031 l 0,-11.24992 q 0,-5.2148 4.062469,-7.03119 1.23046,-0.46875 2.343732,-0.46875 z"
         style="font-style:normal;font-variant:normal;font-weight:normal;font-stretch:normal;font-size:39.99969482px;line-height:125%;font-family:'game robot';-inkscape-font-specification:'game robot, Normal';text-align:center;writing-mode:lr-tb;text-anchor:middle"
         id="path4365" />
      <path
         d="m -2.71328,243.88992 2.81247858,0 q 5.33199052,0 7.03119632,3.90622 0.6249953,1.05468 0.6249953,2.73436 l 0,13.12489 q 0,4.31638 -4.4530911,6.24996 -1.0742105,0.39062 -3.20310052,0.39062 l -2.81247858,0 q -4.843713,0 -6.6405743,-3.12498 -1.0156177,-1.48436 -1.0156177,-3.28122 l 0,-13.59365 q 0,-3.88669 4.2187183,-5.93745 1.1132727,-0.46875 3.4374737,-0.46875 z m -0.390622,6.17183 0,6.87495 0.078124,0.0781 -0.078124,0.0781 0,7.03119 q 0,1.71874 1.6406125,1.95311 l 3.9062202,0 q 1.6406125,-0.2539 1.6406125,-1.87498 l 0,-7.0312 -0.078124,-0.0781 0.078124,-0.0781 0,-6.95307 q 0,-1.67968 -1.5624881,-1.95311 l -3.9843446,0 q -1.6406125,0.23437 -1.6406125,1.95311 z"
         style="font-style:normal;font-variant:normal;font-weight:normal;font-stretch:normal;font-size:39.99969482px;line-height:125%;font-family:'game robot';-inkscape-font-specification:'game robot, Normal';text-align:center;writing-mode:lr-tb;text-anchor:middle"
         id="path4367" />
      <path
         d="m 11.349113,244.04617 4.062469,0 0.859369,0.23437 1.24999,-0.23437 5.781206,0 q 3.593723,0 5.703082,3.74997 0.624995,1.1914 0.624995,2.57811 l 0,4.68746 q 0,0.83984 -0.937493,2.26561 0.937493,0.70312 0.937493,1.48436 l 0,4.21872 q 1.874986,0 1.874986,2.49998 l 0,2.49998 q -0.17578,2.26561 -1.718737,2.26561 l -3.984345,0 q -1.269521,0 -1.640612,-1.71874 l 0,-3.82809 q 0,-1.38671 1.796861,-1.71874 l 0,-2.34373 q -0.312498,-1.64061 -1.640613,-1.64061 l -3.90622,0 q -1.484363,0 -1.640612,2.10935 l 0,1.87499 q 1.874985,0 1.874985,2.49998 l 0,2.26561 q 0,1.97264 -1.24999,2.42185 l -0.468746,0.0781 -7.578068,0 q -1.6406121,-0.37109 -1.6406121,-1.64061 l 0,-3.98435 q 0,-1.32811 1.7968611,-1.64061 l 0,-11.71866 q -1.7968611,-0.3125 -1.7968611,-1.64061 l 0,-3.98435 q 0.3710911,-1.64061 1.6406121,-1.64061 z m 7.421819,9.06243 q 0,1.73827 1.328115,2.18748 l 4.218717,0 q 1.640613,-0.31249 1.640613,-1.64061 l 0,-3.82809 q -0.312498,-1.64062 -1.640613,-1.64062 l -3.90622,0 q -1.484363,0 -1.640612,2.10936 l 0,2.81248 z"
         style="font-style:normal;font-variant:normal;font-weight:normal;font-stretch:normal;font-size:39.99969482px;line-height:125%;font-family:'game robot';-inkscape-font-specification:'game robot, Normal';text-align:center;writing-mode:lr-tb;text-anchor:middle"
         id="path4369" />
      <path
         d="m 35.09893,244.04617 12.187407,0 q 3.222632,0 5.390584,3.5156 0.781244,1.40624 0.781244,3.2031 l 0,2.03123 q 0,3.12498 -2.578105,4.1406 l -0.624995,0.15625 0,0.15624 q 1.660143,0 2.968727,2.49998 0.234373,0.78125 0.234373,1.79687 l 0,2.03123 q 0,4.68746 -4.765588,6.48433 -0.839838,0.23437 -1.40624,0.23437 l -12.187407,0 q -1.24999,0 -1.640612,-1.71874 l 0,-3.74997 q 0.332028,-1.79686 1.796861,-1.79686 l 0,-11.71866 q -1.796861,-0.35156 -1.796861,-1.79686 l 0,-3.74997 q 0.390622,-1.71874 1.640612,-1.71874 z m 7.499943,5.78121 0,3.82809 q 0.312498,1.64061 1.640613,1.64061 l 3.90622,0 q 1.640612,0 1.640612,-2.42185 l 0,-2.26561 q 0,-2.42186 -1.640612,-2.42186 l -3.749972,0 q -1.796861,0.19531 -1.796861,1.64062 z m 0,10.85929 0,3.82809 q 0,1.4453 1.796861,1.64062 l 3.749972,0 q 1.640612,0 1.640612,-2.42186 l 0,-2.26561 q 0,-2.42185 -1.640612,-2.42185 l -3.90622,0 q -1.640613,0.31249 -1.640613,1.64061 z"
         style="font-style:normal;font-variant:normal;font-weight:normal;font-stretch:normal;font-size:39.99969482px;line-height:125%;font-family:'game robot';-inkscape-font-specification:'game robot, Normal';text-align:center;writing-mode:lr-tb;text-anchor:middle"
         id="path4371" />
      <path
         d="m 63.067466,243.88992 2.812479,0 q 5.331991,0 7.031196,3.90622 0.624996,1.05468 0.624996,2.73436 l 0,13.12489 q 0,4.31638 -4.453091,6.24996 -1.074211,0.39062 -3.203101,0.39062 l -2.812479,0 q -4.843713,0 -6.640574,-3.12498 -1.015617,-1.48436 -1.015617,-3.28122 l 0,-13.59365 q 0,-3.88669 4.218718,-5.93745 1.113272,-0.46875 3.437473,-0.46875 z m -0.390622,6.17183 0,6.87495 0.07813,0.0781 -0.07813,0.0781 0,7.03119 q 0,1.71874 1.640613,1.95311 l 3.90622,0 q 1.640613,-0.2539 1.640613,-1.87498 l 0,-7.0312 -0.07813,-0.0781 0.07813,-0.0781 0,-6.95307 q 0,-1.67968 -1.562488,-1.95311 l -3.984345,0 q -1.640613,0.23437 -1.640613,1.95311 z"
         style="font-style:normal;font-variant:normal;font-weight:normal;font-stretch:normal;font-size:39.99969482px;line-height:125%;font-family:'game robot';-inkscape-font-specification:'game robot, Normal';text-align:center;writing-mode:lr-tb;text-anchor:middle"
         id="path4373" />
      <path
         d="m 99.239066,244.04617 q 1.640614,0.37109 1.640614,1.64061 l 0,3.98435 q 0,1.30858 -1.718738,1.64061 l -3.828096,0 q -1.718737,-0.37109 -1.718737,-1.71874 l 0,-1.40624 -0.156249,0 q -1.562488,0.33203 -1.562488,1.56249 l 0,13.28115 q 1.582019,0 1.796861,2.03123 l 0,3.2031 q 0,1.36718 -1.171866,1.95311 l -0.703119,0.0781 -7.421819,0 q -1.308583,0 -1.640612,-1.71874 l 0,-3.82809 q 0,-1.40624 1.796861,-1.71874 l 0,-11.71866 -7.109321,0 q -1.95311,0 -1.95311,-2.26561 l 0,-2.81248 q 0.195311,-2.18748 1.718737,-2.18748 l 22.031082,0 z"
         style="font-style:normal;font-variant:normal;font-weight:normal;font-stretch:normal;font-size:39.99969482px;line-height:125%;font-family:'game robot';-inkscape-font-specification:'game robot, Normal';text-align:center;writing-mode:lr-tb;text-anchor:middle"
         id="path4375" />
      <path
         d="m 120.25453,244.04617 11.95304,0 q 1.56249,0 1.71873,2.26561 l 0,2.73435 q 0,1.73827 -1.32811,2.18748 l -0.46875,0.0781 -3.82809,0 q -1.71874,-0.39062 -1.71874,-1.71874 l 0,-1.40624 -3.74997,0 q -1.48436,0 -1.64061,2.10936 l 0,2.81248 q 0,1.73827 1.32811,2.18748 l 1.87499,0 q 1.71873,0 2.18748,1.32812 l 0.0781,0.62499 q 0,1.52343 -2.03124,1.79687 l -1.79686,0 q -1.48436,0 -1.64061,2.10935 l 0,2.81248 q 0,1.73827 1.32811,2.18749 l 4.06247,0 0,-1.40624 q 0.39062,-1.71874 1.71874,-1.71874 l 3.82809,0 q 1.62108,0 1.79686,2.18748 l 0,2.65623 q 0,1.89452 -1.24999,2.34373 l -0.46874,0.0781 -11.95304,0 q -3.47653,0 -5.62495,-3.59372 -0.70312,-1.34765 -0.70312,-2.81248 l 0,-13.4374 q 0,-4.02341 4.29684,-6.01558 0.8789,-0.39062 2.03123,-0.39062 z"
         style="font-style:normal;font-variant:normal;font-weight:normal;font-stretch:normal;font-size:39.99969482px;line-height:125%;font-family:'game robot';-inkscape-font-specification:'game robot, Normal';text-align:center;writing-mode:lr-tb;text-anchor:middle"
         id="path4377" />
      <path
         d="m 137.52003,244.04617 4.06247,0 0.85936,0.23437 1.24999,-0.23437 5.78121,0 q 3.59372,0 5.70308,3.74997 0.625,1.1914 0.625,2.57811 l 0,4.68746 q 0,0.83984 -0.9375,2.26561 0.9375,0.70312 0.9375,1.48436 l 0,4.21872 q 1.87498,0 1.87498,2.49998 l 0,2.49998 q -0.17578,2.26561 -1.71873,2.26561 l -3.98435,0 q -1.26952,0 -1.64061,-1.71874 l 0,-3.82809 q 0,-1.38671 1.79686,-1.71874 l 0,-2.34373 q -0.3125,-1.64061 -1.64061,-1.64061 l -3.90622,0 q -1.48437,0 -1.64061,2.10935 l 0,1.87499 q 1.87498,0 1.87498,2.49998 l 0,2.26561 q 0,1.97264 -1.24999,2.42185 l -0.46875,0.0781 -7.57806,0 q -1.64062,-0.37109 -1.64062,-1.64061 l 0,-3.98435 q 0,-1.32811 1.79687,-1.64061 l 0,-11.71866 q -1.79687,-0.3125 -1.79687,-1.64061 l 0,-3.98435 q 0.3711,-1.64061 1.64062,-1.64061 z m 7.42182,9.06243 q 0,1.73827 1.32811,2.18748 l 4.21872,0 q 1.64061,-0.31249 1.64061,-1.64061 l 0,-3.82809 q -0.3125,-1.64062 -1.64061,-1.64062 l -3.90622,0 q -1.48437,0 -1.64061,2.10936 l 0,2.81248 z"
         style="font-style:normal;font-variant:normal;font-weight:normal;font-stretch:normal;font-size:39.99969482px;line-height:125%;font-family:'game robot';-inkscape-font-specification:'game robot, Normal';text-align:center;writing-mode:lr-tb;text-anchor:middle"
         id="path4379" />
      <path
         d="m 162.12921,243.42117 6.01558,0 q 1.89452,0 2.34373,1.24999 l 0.0781,0.46875 0,3.98435 q 0,1.32811 -1.79686,1.64061 l 0,1.64061 q 0,2.34373 1.64061,2.34373 l 3.90622,0 q 1.64061,-0.2539 1.64061,-1.87498 l 0,-2.10936 q -1.79686,-0.33203 -1.79686,-1.71874 l 0,-3.82809 q 0,-1.62109 2.18748,-1.79687 l 2.65623,0 q 1.91405,0 2.42186,1.32812 l 0.0781,1.17187 0,2.5781 q -0.19531,2.18748 -1.48436,2.18748 l -0.39062,0.0781 0,11.71866 q 1.87498,0 1.87498,2.49998 l 0,2.26561 q 0,1.95311 -1.32811,2.49998 l -1.17187,0.0781 -2.5781,0 q -1.73827,0 -2.18749,-1.32811 l -0.0781,-0.46875 0,-3.82809 q 0,-1.38671 1.79686,-1.71874 l 0,-2.10936 q 0,-1.64061 -1.64061,-1.87499 l -10.5468,0 q -2.2656,0 -2.2656,-2.2656 l 0,-5.46871 q -1.87499,0 -1.87499,-2.49998 l 0,-2.26561 q 0,-1.97264 1.32812,-2.49998 l 1.17186,-0.0781 z"
         style="font-style:normal;font-variant:normal;font-weight:normal;font-stretch:normal;font-size:39.99969482px;line-height:125%;font-family:'game robot';-inkscape-font-specification:'game robot, Normal';text-align:center;writing-mode:lr-tb;text-anchor:middle"
         id="path4381" />
      <path
         d="m 185.09779,244.04617 7.65619,0 q 1.24999,0 1.64061,1.71874 l 0,3.74997 q -0.35156,1.79686 -1.79686,1.79686 l 0,13.20302 q 0,1.4453 1.79686,1.64062 l 3.5156,0 0,-0.85937 q 0,-1.64062 1.24999,-2.18749 l 0.54687,-0.0781 0,-11.71866 q -1.60155,0 -1.79686,-2.18748 l 0,-2.89061 q 0.19531,-2.18748 1.71873,-2.18748 l 3.98435,0 q 1.26952,0 1.64061,1.71874 l 0,3.90622 q -0.42968,1.64061 -1.79686,1.64061 l 0,11.71866 q 1.79686,0.33203 1.79686,1.71874 l 0,3.82809 q -0.37109,1.71874 -1.64061,1.71874 l -4.14059,0 -0.70312,-0.23437 -1.48437,0.23437 -5.85933,0 q -3.22263,0 -5.39058,-3.5156 -0.78125,-1.42577 -0.78125,-3.2031 l 0,-12.26553 q -1.79686,-0.33203 -1.79686,-1.71874 l 0,-3.82809 q 0.37109,-1.71874 1.64062,-1.71874 z"
         style="font-style:normal;font-variant:normal;font-weight:normal;font-stretch:normal;font-size:39.99969482px;line-height:125%;font-family:'game robot';-inkscape-font-specification:'game robot, Normal';text-align:center;writing-mode:lr-tb;text-anchor:middle"
         id="path4383" />
    </g>
    <g
       style="font-style:normal;font-weight:normal;font-size:17.23642921px;line-height:125%;font-family:sans-serif;letter-spacing:0px;word-spacing:0px;fill:none;fill-opacity:1;stroke:#0000ff;stroke-width:1px;stroke-linecap:butt;stroke-linejoin:miter;stroke-opacity:1"
       id="text4272">
      <path
         d="m 738.33586,21.246523 q 0,-1.986229 0.95945,-3.139252 0.96786,-1.161439 2.55011,-1.161439 1.58225,0 2.5417,1.127774 0.96787,1.127775 0.99312,3.071923 l 0,0.959449 q 0,1.977813 -0.95945,3.130836 -0.95945,1.153023 -2.55853,1.153023 -1.58225,0 -2.5417,-1.119358 -0.95104,-1.119358 -0.9847,-3.029841 l 0,-0.993115 z m 1.48967,0.858455 q 0,1.40551 0.54705,2.213467 0.55547,0.799542 1.48968,0.799542 1.96939,0 2.02831,-2.844684 l 0,-1.02678 q 0,-1.397093 -0.55547,-2.205051 -0.55548,-0.816374 -1.48968,-0.816374 -0.91737,0 -1.47284,0.816374 -0.54705,0.807958 -0.54705,2.196635 l 0,0.866871 z"
         style="font-style:normal;font-variant:normal;font-weight:normal;font-stretch:normal;font-size:17.23642921px;line-height:125%;font-family:'Roboto Condensed';-inkscape-font-specification:'Roboto Condensed, Normal';text-align:start;writing-mode:lr-tb;text-anchor:start;fill:none;stroke:#0000ff;stroke-opacity:1"
         id="path4386" />
      <path
         d="m 753.88063,22.104978 q 0,2.16297 -0.78271,3.223415 -0.7743,1.060444 -2.19664,1.060444 -1.37184,0 -2.11247,-1.035196 l 0,4.368021 -1.48126,0 0,-12.607505 1.3466,0 0.0758,1.009947 q 0.74904,-1.178272 2.14613,-1.178272 1.49809,0 2.23872,1.043612 0.74063,1.043612 0.76588,3.12242 l 0,0.993114 z m -1.48126,-0.850038 q 0,-1.531753 -0.47131,-2.255549 -0.47131,-0.732211 -1.51492,-0.732211 -1.06886,0 -1.62433,1.06886 l 0,4.738335 q 0.54705,1.043612 1.64116,1.043612 1.00995,0 1.48126,-0.723795 0.47972,-0.732212 0.48814,-2.2303 l 0,-0.908952 z"
         style="font-style:normal;font-variant:normal;font-weight:normal;font-stretch:normal;font-size:17.23642921px;line-height:125%;font-family:'Roboto Condensed';-inkscape-font-specification:'Roboto Condensed, Normal';text-align:start;writing-mode:lr-tb;text-anchor:start;fill:none;stroke:#0000ff;stroke-opacity:1"
         id="path4388" />
      <path
         d="m 759.07343,26.388837 q -1.70007,0 -2.60903,-1.009947 -0.90895,-1.018363 -0.92578,-2.979344 l 0,-1.102525 q 0,-2.036727 0.8837,-3.18975 0.89212,-1.161439 2.48279,-1.161439 1.59908,0 2.39021,1.018363 0.79112,1.018364 0.80796,3.172917 l 0,0.976282 -5.0834,0 0,0.210406 q 0,1.464423 0.54705,2.129305 0.55547,0.664882 1.59067,0.664882 0.65646,0 1.15302,-0.244071 0.50497,-0.252486 0.94262,-0.791125 l 0.77429,0.942617 q -0.96787,1.363429 -2.9541,1.363429 z m -0.16832,-8.163739 q -0.92578,0 -1.37184,0.639634 -0.44606,0.631216 -0.50498,1.969396 l 3.58531,0 0,-0.201989 q -0.0589,-1.296099 -0.4713,-1.85157 -0.40398,-0.555471 -1.23719,-0.555471 z"
         style="font-style:normal;font-variant:normal;font-weight:normal;font-stretch:normal;font-size:17.23642921px;line-height:125%;font-family:'Roboto Condensed';-inkscape-font-specification:'Roboto Condensed, Normal';text-align:start;writing-mode:lr-tb;text-anchor:start;fill:none;stroke:#0000ff;stroke-opacity:1"
         id="path4390" />
      <path
         d="m 765.30144,17.114157 0.0421,0.984698 q 0.86688,-1.153023 2.21347,-1.153023 2.41546,0 2.44912,3.223414 l 0,6.051266 -1.48125,0 0,-5.983936 q 0,-1.06886 -0.3619,-1.51492 -0.35348,-0.454476 -1.06886,-0.454476 -0.55547,0 -1.00153,0.370313 -0.43764,0.370314 -0.70696,0.967866 l 0,6.615153 -1.48968,0 0,-9.106355 1.40551,0 z"
         style="font-style:normal;font-variant:normal;font-weight:normal;font-stretch:normal;font-size:17.23642921px;line-height:125%;font-family:'Roboto Condensed';-inkscape-font-specification:'Roboto Condensed, Normal';text-align:start;writing-mode:lr-tb;text-anchor:start;fill:none;stroke:#0000ff;stroke-opacity:1"
         id="path4392" />
      <path
         d="m 777.80795,23.123342 q 0,-0.917369 -0.49655,-1.40551 -0.49656,-0.488141 -1.79266,-0.951034 -1.2961,-0.462892 -1.98623,-0.967865 -0.68171,-0.51339 -1.02678,-1.16144 -0.33665,-0.656465 -0.33665,-1.498088 0,-1.456007 0.96787,-2.398624 0.97628,-0.942617 2.55012,-0.942617 1.07727,0 1.9189,0.488141 0.84162,0.479725 1.29609,1.33818 0.45448,0.858455 0.45448,1.885234 l -1.54859,0 q 0,-1.13619 -0.54705,-1.758991 -0.54705,-0.6228 -1.57383,-0.6228 -0.9342,0 -1.44759,0.521806 -0.51339,0.521805 -0.51339,1.464423 0,0.774292 0.55547,1.296098 0.55547,0.521806 1.71691,0.934201 1.80948,0.597552 2.58378,1.47284 0.78271,0.875287 0.78271,2.289213 0,1.489672 -0.96787,2.390208 -0.96787,0.89212 -2.63428,0.89212 -1.06886,0 -1.97781,-0.462892 -0.90054,-0.471309 -1.42234,-1.312932 -0.51339,-0.850038 -0.51339,-1.944148 l 1.54858,0 q 0,1.136191 0.63122,1.767408 0.63963,0.631217 1.73374,0.631217 1.01837,0 1.53176,-0.521806 0.51338,-0.521806 0.51338,-1.422342 z"
         style="font-style:normal;font-variant:normal;font-weight:normal;font-stretch:normal;font-size:17.23642921px;line-height:125%;font-family:'Roboto Condensed';-inkscape-font-specification:'Roboto Condensed, Normal';text-align:start;writing-mode:lr-tb;text-anchor:start;fill:none;stroke:#0000ff;stroke-opacity:1"
         id="path4394" />
      <path
         d="m 784.33053,25.117987 q 0.74062,0 1.18668,-0.454476 0.44606,-0.462893 0.48815,-1.312931 l 1.40551,0 q -0.0505,1.312931 -0.93421,2.179802 -0.87528,0.858455 -2.14613,0.858455 -1.69166,0 -2.58378,-1.060444 -0.88371,-1.068861 -0.88371,-3.172917 l 0,-1.001531 q 0,-2.061975 0.88371,-3.130836 0.8837,-1.077277 2.57536,-1.077277 1.39709,0 2.21347,0.883704 0.82479,0.883704 0.87529,2.415456 l -1.40551,0 q -0.0505,-1.009947 -0.48815,-1.51492 -0.42922,-0.504974 -1.1951,-0.504974 -0.99311,0 -1.47284,0.656466 -0.47972,0.648049 -0.49656,2.137721 l 0,1.161439 q 0,1.607499 0.47131,2.272381 0.47973,0.664882 1.50651,0.664882 z"
         style="font-style:normal;font-variant:normal;font-weight:normal;font-stretch:normal;font-size:17.23642921px;line-height:125%;font-family:'Roboto Condensed';-inkscape-font-specification:'Roboto Condensed, Normal';text-align:start;writing-mode:lr-tb;text-anchor:start;fill:none;stroke:#0000ff;stroke-opacity:1"
         id="path4396" />
      <path
         d="m 788.83321,21.246523 q 0,-1.986229 0.95945,-3.139252 0.96787,-1.161439 2.55012,-1.161439 1.58225,0 2.5417,1.127774 0.96786,1.127775 0.99311,3.071923 l 0,0.959449 q 0,1.977813 -0.95945,3.130836 -0.95945,1.153023 -2.55853,1.153023 -1.58225,0 -2.5417,-1.119358 -0.95104,-1.119358 -0.9847,-3.029841 l 0,-0.993115 z m 1.48967,0.858455 q 0,1.40551 0.54706,2.213467 0.55547,0.799542 1.48967,0.799542 1.96939,0 2.02831,-2.844684 l 0,-1.02678 q 0,-1.397093 -0.55547,-2.205051 -0.55547,-0.816374 -1.48967,-0.816374 -0.91737,0 -1.47284,0.816374 -0.54706,0.807958 -0.54706,2.196635 l 0,0.866871 z"
         style="font-style:normal;font-variant:normal;font-weight:normal;font-stretch:normal;font-size:17.23642921px;line-height:125%;font-family:'Roboto Condensed';-inkscape-font-specification:'Roboto Condensed, Normal';text-align:start;writing-mode:lr-tb;text-anchor:start;fill:none;stroke:#0000ff;stroke-opacity:1"
         id="path4398" />
      <path
         d="m 801.55854,18.51125 q -0.3114,-0.05891 -0.6733,-0.05891 -1.1446,0 -1.59908,1.254017 l 0,6.514158 -1.48967,0 0,-9.106355 1.44759,0 0.0252,0.925784 q 0.59755,-1.094109 1.69166,-1.094109 0.35348,0 0.58914,0.117827 l 0.008,1.447591 z"
         style="font-style:normal;font-variant:normal;font-weight:normal;font-stretch:normal;font-size:17.23642921px;line-height:125%;font-family:'Roboto Condensed';-inkscape-font-specification:'Roboto Condensed, Normal';text-align:start;writing-mode:lr-tb;text-anchor:start;fill:none;stroke:#0000ff;stroke-opacity:1"
         id="path4400" />
      <path
         d="m 809.64653,22.104978 q 0,2.129305 -0.76587,3.206582 -0.76588,1.077277 -2.22189,1.077277 -1.44759,0 -2.17138,-1.245601 l -0.0757,1.077276 -1.35501,0 0,-12.927322 1.48125,0 0,4.822498 q 0.73222,-1.169856 2.10406,-1.169856 1.49809,0 2.24713,1.060445 0.74905,1.060444 0.75746,3.198165 l 0,0.900536 z m -1.48125,-0.850038 q 0,-1.615916 -0.45448,-2.29763 -0.44606,-0.69013 -1.45601,-0.69013 -1.15302,0 -1.71691,1.245601 l 0,4.334356 q 0.55548,1.228769 1.73375,1.228769 1.00994,0 1.44759,-0.706963 0.43764,-0.706963 0.44606,-2.196635 l 0,-0.917368 z"
         style="font-style:normal;font-variant:normal;font-weight:normal;font-stretch:normal;font-size:17.23642921px;line-height:125%;font-family:'Roboto Condensed';-inkscape-font-specification:'Roboto Condensed, Normal';text-align:start;writing-mode:lr-tb;text-anchor:start;fill:none;stroke:#0000ff;stroke-opacity:1"
         id="path4402" />
      <path
         d="m 811.25403,21.246523 q 0,-1.986229 0.95945,-3.139252 0.96787,-1.161439 2.55012,-1.161439 1.58225,0 2.5417,1.127774 0.96786,1.127775 0.99311,3.071923 l 0,0.959449 q 0,1.977813 -0.95945,3.130836 -0.95945,1.153023 -2.55853,1.153023 -1.58225,0 -2.5417,-1.119358 -0.95103,-1.119358 -0.9847,-3.029841 l 0,-0.993115 z m 1.48967,0.858455 q 0,1.40551 0.54706,2.213467 0.55547,0.799542 1.48967,0.799542 1.9694,0 2.02831,-2.844684 l 0,-1.02678 q 0,-1.397093 -0.55547,-2.205051 -0.55547,-0.816374 -1.48967,-0.816374 -0.91737,0 -1.47284,0.816374 -0.54706,0.807958 -0.54706,2.196635 l 0,0.866871 z"
         style="font-style:normal;font-variant:normal;font-weight:normal;font-stretch:normal;font-size:17.23642921px;line-height:125%;font-family:'Roboto Condensed';-inkscape-font-specification:'Roboto Condensed, Normal';text-align:start;writing-mode:lr-tb;text-anchor:start;fill:none;stroke:#0000ff;stroke-opacity:1"
         id="path4404" />
      <path
         d="m 822.16987,14.909106 0,2.205051 1.37185,0 0,1.20352 -1.37185,0 0,5.647287 q 0,0.538638 0.17675,0.816374 0.17674,0.277735 0.60596,0.277735 0.29457,0 0.59756,-0.100994 l -0.0168,1.262433 q -0.50497,0.168325 -1.03519,0.168325 -0.88371,0 -1.3466,-0.631217 -0.46289,-0.631217 -0.46289,-1.78424 l 0,-5.655703 -1.38868,0 0,-1.20352 1.38868,0 0,-2.205051 1.48125,0 z"
         style="font-style:normal;font-variant:normal;font-weight:normal;font-stretch:normal;font-size:17.23642921px;line-height:125%;font-family:'Roboto Condensed';-inkscape-font-specification:'Roboto Condensed, Normal';text-align:start;writing-mode:lr-tb;text-anchor:start;fill:none;stroke:#0000ff;stroke-opacity:1"
         id="path4406" />
      <path
         d="m 829.21426,21.246523 q 0,-2.205051 0.59755,-4.149199 0.59755,-1.944148 1.69166,-3.408571 0.66488,-0.883704 1.27927,-1.296099 l 0.29456,1.02678 q -1.00994,0.967866 -1.65799,2.92043 -0.64805,1.944148 -0.70697,4.32594 l -0.008,0.681714 q 0,2.962511 0.8332,5.234892 0.63122,1.708494 1.54017,2.642695 l -0.29456,0.951033 q -0.7743,-0.521806 -1.57384,-1.71691 -1.99464,-3.004592 -1.99464,-7.212705 z"
         style="font-style:normal;font-variant:normal;font-weight:normal;font-stretch:normal;font-size:17.23642921px;line-height:125%;font-family:'Roboto Condensed';-inkscape-font-specification:'Roboto Condensed, Normal';text-align:start;writing-mode:lr-tb;text-anchor:start;fill:none;stroke:#0000ff;stroke-opacity:1"
         id="path4408" />
      <path
         d="m 837.82406,25.117987 q 0.74062,0 1.18668,-0.454476 0.44606,-0.462893 0.48815,-1.312931 l 1.40551,0 q -0.0505,1.312931 -0.93421,2.179802 -0.87528,0.858455 -2.14613,0.858455 -1.69166,0 -2.58378,-1.060444 -0.88371,-1.068861 -0.88371,-3.172917 l 0,-1.001531 q 0,-2.061975 0.88371,-3.130836 0.8837,-1.077277 2.57536,-1.077277 1.39709,0 2.21347,0.883704 0.82479,0.883704 0.87529,2.415456 l -1.40551,0 q -0.0505,-1.009947 -0.48815,-1.51492 -0.42922,-0.504974 -1.1951,-0.504974 -0.99311,0 -1.47284,0.656466 -0.47972,0.648049 -0.49656,2.137721 l 0,1.161439 q 0,1.607499 0.47131,2.272381 0.47973,0.664882 1.50651,0.664882 z"
         style="font-style:normal;font-variant:normal;font-weight:normal;font-stretch:normal;font-size:17.23642921px;line-height:125%;font-family:'Roboto Condensed';-inkscape-font-specification:'Roboto Condensed, Normal';text-align:start;writing-mode:lr-tb;text-anchor:start;fill:none;stroke:#0000ff;stroke-opacity:1"
         id="path4410" />
      <path
         d="m 845.84471,21.330686 q 0,3.753636 -1.68324,6.640401 -0.90895,1.548586 -1.88523,2.205051 l -0.29457,-0.951033 q 1.06044,-1.018363 1.70849,-3.105587 0.64805,-2.09564 0.66488,-4.586843 l 0,-0.302984 q 0,-3.198166 -1.05203,-5.723033 -0.58071,-1.380261 -1.32134,-2.16297 l 0.29457,-0.951034 q 0.92578,0.622801 1.79265,2.045143 1.77582,2.928846 1.77582,6.892889 z"
         style="font-style:normal;font-variant:normal;font-weight:normal;font-stretch:normal;font-size:17.23642921px;line-height:125%;font-family:'Roboto Condensed';-inkscape-font-specification:'Roboto Condensed, Normal';text-align:start;writing-mode:lr-tb;text-anchor:start;fill:none;stroke:#0000ff;stroke-opacity:1"
         id="path4412" />
      <path
         d="m 858.78887,26.220512 -6.8508,0 0,-1.119358 3.49273,-4.628923 q 0.79113,-1.068861 1.09411,-1.750575 0.3114,-0.690131 0.3114,-1.456007 0,-0.976282 -0.45448,-1.582251 -0.45447,-0.605968 -1.1951,-0.605968 -0.9342,0 -1.44759,0.64805 -0.50497,0.639633 -0.50497,1.851569 l -1.48968,0 q 0,-1.691661 0.92579,-2.735273 0.92578,-1.043612 2.51645,-1.043612 1.46442,0 2.30605,0.900536 0.84162,0.89212 0.84162,2.381792 0,1.817904 -1.89365,4.300691 l -2.72686,3.568479 5.07498,0 0,1.27085 z"
         style="font-style:normal;font-variant:normal;font-weight:normal;font-stretch:normal;font-size:17.23642921px;line-height:125%;font-family:'Roboto Condensed';-inkscape-font-specification:'Roboto Condensed, Normal';text-align:start;writing-mode:lr-tb;text-anchor:start;fill:none;stroke:#0000ff;stroke-opacity:1"
         id="path4414" />
      <path
         d="m 867.00311,20.994037 q 0,2.710024 -0.79112,4.05662 -0.79113,1.33818 -2.48279,1.33818 -1.64117,0 -2.44912,-1.287683 -0.80796,-1.287682 -0.84163,-3.871463 l 0,-2.104056 q 0,-2.684776 0.79113,-4.006124 0.79954,-1.321347 2.48279,-1.321347 1.65799,0 2.44912,1.254018 0.79954,1.254017 0.84162,3.795717 l 0,2.146138 z m -1.48967,-2.129305 q 0,-1.944148 -0.42923,-2.861517 -0.42923,-0.925785 -1.37184,-0.925785 -0.91737,0 -1.3466,0.908953 -0.42923,0.900536 -0.44606,2.726857 l 0,2.524867 q 0,1.935732 0.44606,2.912014 0.44606,0.967866 1.36343,0.967866 0.90895,0 1.33818,-0.917369 0.42923,-0.917368 0.44606,-2.802603 l 0,-2.533283 z"
         style="font-style:normal;font-variant:normal;font-weight:normal;font-stretch:normal;font-size:17.23642921px;line-height:125%;font-family:'Roboto Condensed';-inkscape-font-specification:'Roboto Condensed, Normal';text-align:start;writing-mode:lr-tb;text-anchor:start;fill:none;stroke:#0000ff;stroke-opacity:1"
         id="path4416" />
      <path
         d="m 873.40786,26.220512 -1.49809,0 0,-10.377205 -2.57537,1.153023 0,-1.413926 3.8378,-1.674829 0.23566,0 0,12.312937 z"
         style="font-style:normal;font-variant:normal;font-weight:normal;font-stretch:normal;font-size:17.23642921px;line-height:125%;font-family:'Roboto Condensed';-inkscape-font-specification:'Roboto Condensed, Normal';text-align:start;writing-mode:lr-tb;text-anchor:start;fill:none;stroke:#0000ff;stroke-opacity:1"
         id="path4418" />
      <path
         d="m 883.79347,17.164654 q 0,0.917369 -0.41239,1.632748 -0.40398,0.715379 -1.09411,1.119358 0.81637,0.420811 1.27926,1.211936 0.4629,0.782709 0.4629,1.78424 0,1.58225 -0.90054,2.533284 -0.89212,0.942617 -2.37338,0.942617 -1.48125,0 -2.38179,-0.942617 -0.89212,-0.951034 -0.89212,-2.533284 0,-1.009947 0.45448,-1.801072 0.46289,-0.799542 1.25402,-1.203521 -0.69013,-0.403978 -1.0857,-1.110941 -0.39556,-0.715379 -0.39556,-1.632748 0,-1.548585 0.83321,-2.457538 0.84162,-0.908952 2.21346,-0.908952 1.36343,0 2.19664,0.900536 0.84162,0.900536 0.84162,2.465954 z m -1.25402,5.714617 q 0,-1.052028 -0.49655,-1.683245 -0.49656,-0.639633 -1.30452,-0.639633 -0.82479,0 -1.30451,0.639633 -0.47131,0.639633 -0.47131,1.683245 0,1.060444 0.46289,1.64958 0.47131,0.589136 1.32976,0.589136 0.85846,0 1.32135,-0.589136 0.46289,-0.589136 0.46289,-1.64958 z m -0.22723,-5.689368 q 0,-0.934201 -0.43765,-1.523337 -0.43764,-0.589136 -1.11936,-0.589136 -0.71538,0 -1.13619,0.58072 -0.42081,0.580719 -0.42081,1.531753 0,0.959449 0.42923,1.523337 0.42923,0.563887 1.12777,0.563887 0.71538,0 1.13619,-0.572304 0.42082,-0.572303 0.42082,-1.51492 z"
         style="font-style:normal;font-variant:normal;font-weight:normal;font-stretch:normal;font-size:17.23642921px;line-height:125%;font-family:'Roboto Condensed';-inkscape-font-specification:'Roboto Condensed, Normal';text-align:start;writing-mode:lr-tb;text-anchor:start;fill:none;stroke:#0000ff;stroke-opacity:1"
         id="path4420" />
    </g>
  </g>
</svg>
